<svg width="1400" height="420" viewBox="0 0 1400 420" fill="none" xmlns="http://www.w3.org/2000/svg">
  <defs>
    <radialGradient id="glow1" cx="50%" cy="50%" r="50%">
      <stop offset="0%" stop-color="#04c28f" stop-opacity="0.55"/>
      <stop offset="45%" stop-color="#04c28f" stop-opacity="0.18"/>
      <stop offset="100%" stop-color="#000000" stop-opacity="0"/>
    </radialGradient>

    <linearGradient id="bg" x1="0" y1="0" x2="1400" y2="420">
      <stop offset="0%" stop-color="#020806"/>
      <stop offset="45%" stop-color="#061410"/>
      <stop offset="100%" stop-color="#020202"/>
    </linearGradient>

    <linearGradient id="stroke" x1="0" y1="0" x2="1400" y2="0">
      <stop offset="0%" stop-color="#04c28f" stop-opacity="0"/>
      <stop offset="50%" stop-color="#04c28f" stop-opacity="1"/>
      <stop offset="100%" stop-color="#04c28f" stop-opacity="0"/>
    </linearGradient>

    <filter id="blur">
      <feGaussianBlur stdDeviation="40"/>
    </filter>
  </defs>

  <rect width="1400" height="420" rx="34" fill="url(#bg)"/>

  <circle cx="230" cy="130" r="180" fill="url(#glow1)" filter="url(#blur)"/>
  <circle cx="1110" cy="260" r="220" fill="url(#glow1)" filter="url(#blur)" opacity="0.75"/>

  <path d="M0 390 H1400" stroke="url(#stroke)" stroke-width="2"/>

  <g opacity="0.18">
    <path d="M80 80 H1320" stroke="#04c28f" stroke-width="1"/>
    <path d="M80 160 H1320" stroke="#04c28f" stroke-width="1"/>
    <path d="M80 240 H1320" stroke="#04c28f" stroke-width="1"/>
    <path d="M80 320 H1320" stroke="#04c28f" stroke-width="1"/>
    <path d="M160 40 V380" stroke="#04c28f" stroke-width="1"/>
    <path d="M340 40 V380" stroke="#04c28f" stroke-width="1"/>
    <path d="M520 40 V380" stroke="#04c28f" stroke-width="1"/>
    <path d="M700 40 V380" stroke="#04c28f" stroke-width="1"/>
    <path d="M880 40 V380" stroke="#04c28f" stroke-width="1"/>
    <path d="M1060 40 V380" stroke="#04c28f" stroke-width="1"/>
    <path d="M1240 40 V380" stroke="#04c28f" stroke-width="1"/>
  </g>

  <text x="84" y="92" fill="#04c28f" font-family="Arial, Helvetica, sans-serif" font-size="18" font-weight="700" letter-spacing="4">
    AI SYSTEMS ARCHITECT
  </text>

  <text x="80" y="188" fill="#EFFFF9" font-family="Arial, Helvetica, sans-serif" font-size="76" font-weight="900" letter-spacing="-4">
    YASHAIDEV
  </text>

  <text x="84" y="236" fill="#C9D1D9" font-family="Arial, Helvetica, sans-serif" font-size="25" font-weight="500">
    Premium Websites + AI Lead Systems That Turn Visitors Into Booked Calls
  </text>

  <g transform="translate(82,278)">
    <rect width="185" height="44" rx="22" fill="#04c28f"/>
    <text x="28" y="29" fill="#020806" font-family="Arial, Helvetica, sans-serif" font-size="15" font-weight="800">
      Full-Stack Dev
    </text>
  </g>

  <g transform="translate(282,278)">
    <rect width="165" height="44" rx="22" fill="#081C16" stroke="#04c28f" stroke-opacity="0.55"/>
    <text x="27" y="29" fill="#EFFFF9" font-family="Arial, Helvetica, sans-serif" font-size="15" font-weight="700">
      AI Automation
    </text>
  </g>

  <g transform="translate(462,278)">
    <rect width="155" height="44" rx="22" fill="#081C16" stroke="#04c28f" stroke-opacity="0.55"/>
    <text x="27" y="29" fill="#EFFFF9" font-family="Arial, Helvetica, sans-serif" font-size="15" font-weight="700">
      Lead Engines
    </text>
  </g>

  <g transform="translate(980,70)">
    <rect width="300" height="230" rx="28" fill="#06120F" stroke="#04c28f" stroke-opacity="0.35"/>
    <circle cx="64" cy="62" r="12" fill="#04c28f"/>
    <rect x="92" y="52" width="138" height="18" rx="9" fill="#EFFFF9" opacity="0.85"/>
    <rect x="50" y="98" width="200" height="14" rx="7" fill="#04c28f" opacity="0.45"/>
    <rect x="50" y="128" width="160" height="14" rx="7" fill="#EFFFF9" opacity="0.18"/>
    <rect x="50" y="158" width="210" height="14" rx="7" fill="#EFFFF9" opacity="0.12"/>
    <rect x="50" y="188" width="120" height="26" rx="13" fill="#04c28f"/>
  </g>

  <text x="980" y="348" fill="#04c28f" font-family="Arial, Helvetica, sans-serif" font-size="18" font-weight="700">
    github.com/YasirAhmedGHauri
  </text>
</svg>
